<?xml version="1.0" encoding="utf-8"?>
<!-- Generator: Adobe Illustrator 27.5.0, SVG Export Plug-In . SVG Version: 6.00 Build 0)  -->
<svg version="1.1" xmlns="http://www.w3.org/2000/svg" xmlns:xlink="http://www.w3.org/1999/xlink" x="0px" y="0px"
	 viewBox="0 0 500 500" style="enable-background:new 0 0 500 500;" xml:space="preserve">
<g id="BACKGROUND">
	<rect style="fill:#FFFFFF;" width="500" height="500"/>
</g>
<g id="OBJECTS">
	<g>
		<path style="fill:#DCE8EF;" d="M426.727,411.288H73.273c-4.288,0-7.765-3.477-7.765-7.765l0,0c0-4.288,3.477-7.765,7.765-7.765
			h353.455c4.288,0,7.765,3.477,7.765,7.765l0,0C434.492,407.812,431.016,411.288,426.727,411.288z"/>
		<g>
			<path style="fill:#56548C;" d="M69.897,335.599V128.37c0-3.135,2.541-5.676,5.675-5.676h348.856c3.135,0,5.676,2.541,5.676,5.676
				v207.228c0,3.135-2.541,5.676-5.676,5.676H75.572C72.438,341.274,69.897,338.733,69.897,335.599z"/>
		</g>
		<g>
			<linearGradient id="SVGID_1_" gradientUnits="userSpaceOnUse" x1="163.739" y1="82.5762" x2="336.2609" y2="381.3929">
				<stop  offset="0" style="stop-color:#C6DFF2"/>
				<stop  offset="0.999" style="stop-color:#5D8BFC"/>
			</linearGradient>
			<polygon style="fill:url(#SVGID_1_);" points="79.144,332.552 79.144,131.417 420.856,131.417 420.856,332.552 			"/>
		</g>
		<g>
			<defs>
				
					<rect id="SVGID_00000178923054654454558010000002486269050080974241_" x="149.433" y="61.128" transform="matrix(-1.836970e-16 1 -1 -1.836970e-16 481.9845 -18.0154)" width="201.135" height="341.712"/>
			</defs>
			<clipPath id="SVGID_00000139273678554816953140000017390200748088200383_">
				<use xlink:href="#SVGID_00000178923054654454558010000002486269050080974241_"  style="overflow:visible;"/>
			</clipPath>
			<g style="clip-path:url(#SVGID_00000139273678554816953140000017390200748088200383_);">
				
					<linearGradient id="SVGID_00000131329564591165466950000005859067424517493151_" gradientUnits="userSpaceOnUse" x1="278.1229" y1="109.6013" x2="353.8824" y2="240.8208">
					<stop  offset="0" style="stop-color:#68ACFF"/>
					<stop  offset="0.2291" style="stop-color:#65A7FF"/>
					<stop  offset="0.4985" style="stop-color:#5B99FF"/>
					<stop  offset="0.787" style="stop-color:#4A81FF"/>
					<stop  offset="1" style="stop-color:#3B6BFF"/>
				</linearGradient>
				
					<rect x="262.833" y="118.429" style="fill:url(#SVGID_00000131329564591165466950000005859067424517493151_);" width="106.339" height="113.564"/>
				<path style="fill:#B3D3FF;" d="M376.65,171.331h-0.012V110.67h-121.3v60.662h-0.012v7.466h0.012v60.662h121.3v-60.662h0.012
					V171.331z M369.172,171.331h-49.452v-53.196h49.452V171.331z M262.804,118.135h49.451v53.196h-49.451V118.135z M262.804,178.797
					h49.451v53.196h-49.451V178.797z M369.172,231.993h-49.452v-53.196h49.452V231.993z"/>
			</g>
			<g style="clip-path:url(#SVGID_00000139273678554816953140000017390200748088200383_);">
				<g>
					
						<linearGradient id="SVGID_00000023960531434740678320000014505079821742441912_" gradientUnits="userSpaceOnUse" x1="415.8141" y1="198.5511" x2="415.8141" y2="251.4715" gradientTransform="matrix(-0.0233 0.9997 0.9997 0.0233 190.2252 -184.9018)">
						<stop  offset="0" style="stop-color:#68ACFF"/>
						<stop  offset="0.2291" style="stop-color:#65A7FF"/>
						<stop  offset="0.4985" style="stop-color:#5B99FF"/>
						<stop  offset="0.787" style="stop-color:#4A81FF"/>
						<stop  offset="1" style="stop-color:#3B6BFF"/>
					</linearGradient>
					<path style="fill:url(#SVGID_00000023960531434740678320000014505079821742441912_);" d="M403.625,244.033
						c8.878,3.473,18.5,5.06,28.013,5.257c-1.969-11.273-11.129-19.898-20.93-23.669c-9.962-3.833-22.314-3.408-31.534,3.533
						C386.392,235.441,394.719,240.549,403.625,244.033z"/>
					<g>
						<path style="fill:#0082FB;" d="M438.957,256.235c-0.509,0.476-1.37,0.375-1.92-0.214
							c-15.658-16.089-35.477-25.253-57.863-26.867c22.765,0.79,43.167,9.424,59.647,25.138
							C439.409,254.876,439.466,255.759,438.957,256.235L438.957,256.235z"/>
					</g>
				</g>
			</g>
			<g style="clip-path:url(#SVGID_00000139273678554816953140000017390200748088200383_);">
				<g>
					
						<linearGradient id="SVGID_00000125594661463985332870000005197616482235971246_" gradientUnits="userSpaceOnUse" x1="414.8424" y1="162.0713" x2="414.8424" y2="244.1096" gradientTransform="matrix(0.9117 -0.4108 0.4108 0.9117 -53.6325 190.6077)">
						<stop  offset="0" style="stop-color:#68ACFF"/>
						<stop  offset="0.2291" style="stop-color:#65A7FF"/>
						<stop  offset="0.4985" style="stop-color:#5B99FF"/>
						<stop  offset="0.787" style="stop-color:#4A81FF"/>
						<stop  offset="1" style="stop-color:#3B6BFF"/>
					</linearGradient>
					<path style="fill:url(#SVGID_00000125594661463985332870000005197616482235971246_);" d="M418.314,197.867
						c10.32,10.58,18.395,23.36,24.421,36.824c-17.284,3.996-35.131-3.876-46.433-15.593c-11.489-11.91-18.339-29.803-13.997-47.158
						C395.641,178.449,407.962,187.254,418.314,197.867z"/>
					<g>
						<path style="fill:#0082FB;" d="M457.071,240.947c0.373-1.014-0.292-2.183-1.464-2.612
							c-32.426-12.643-57.478-35.407-73.301-66.396c14.874,32.027,39.521,55.944,71.908,69.986
							C455.403,242.413,456.698,241.961,457.071,240.947L457.071,240.947z"/>
					</g>
				</g>
			</g>
			<g style="clip-path:url(#SVGID_00000139273678554816953140000017390200748088200383_);">
				<g>
					
						<linearGradient id="SVGID_00000061438771032659223110000012001936794095220372_" gradientUnits="userSpaceOnUse" x1="411.2047" y1="141.9419" x2="411.2047" y2="188.9465" gradientTransform="matrix(0.9999 0.0118 -0.0118 0.9999 5.9775 -2.2113)">
						<stop  offset="0" style="stop-color:#68ACFF"/>
						<stop  offset="0.2291" style="stop-color:#65A7FF"/>
						<stop  offset="0.4985" style="stop-color:#5B99FF"/>
						<stop  offset="0.787" style="stop-color:#4A81FF"/>
						<stop  offset="1" style="stop-color:#3B6BFF"/>
					</linearGradient>
					<path style="fill:url(#SVGID_00000061438771032659223110000012001936794095220372_);" d="M422.35,166.671
						c2.806,7.989,3.915,16.58,3.794,25.03c-9.945-2.099-17.316-10.499-20.358-19.316c-3.092-8.963-2.329-19.914,4.118-27.882
						C415.26,151.106,419.535,158.657,422.35,166.671z"/>
					<g>
						<path style="fill:#0082FB;" d="M432.081,198.415c0.439-0.437,0.375-1.205-0.13-1.711
							c-13.793-14.4-21.311-32.278-22.047-52.201c-0.008,20.232,7.021,38.611,20.456,53.73
							C430.861,198.773,431.642,198.851,432.081,198.415L432.081,198.415z"/>
					</g>
				</g>
			</g>
		</g>
		<g>
			
				<linearGradient id="SVGID_00000147914227368654330330000014800126067893421474_" gradientUnits="userSpaceOnUse" x1="95.0283" y1="122.2464" x2="221.7431" y2="341.7227">
				<stop  offset="0" style="stop-color:#C6DFF2"/>
				<stop  offset="0.999" style="stop-color:#5D8BFC"/>
			</linearGradient>
			<polygon style="fill:url(#SVGID_00000147914227368654330330000014800126067893421474_);" points="79.144,332.552 79.144,131.417 
				237.628,131.417 237.628,332.552 			"/>
		</g>
		<rect x="204.937" y="341.274" style="fill:#282860;" width="90.126" height="53.033"/>
		<rect x="155.414" y="394.307" style="fill:#56548C;" width="189.173" height="8.088"/>
		<g>
			<g>
				<polygon style="fill:#FFC8AF;" points="236.889,218.033 239.626,224.971 223.397,232.678 219.993,226.053 214.139,222.311 
					214.175,222.25 237.628,211.006 				"/>
				<path style="fill:#FFC8AF;" d="M231.045,197.253c-0.075-0.157-0.171-0.296-0.266-0.436l-2.087-4.688l-4.155-9.347
					c-0.367-0.818-1.159-1.271-1.986-1.222c-0.26,0.015-0.534,0.079-0.8,0.201c-1.105,0.511-1.747,1.854-1.37,3.063l3.313,10.57
					l0.451,1.437l-4.08,1.953l-0.001-0.002l-8.889,4.258l-0.059,0.028l0,0l-1.952,0.935c-1.674,0.803-2.376,2.82-1.573,4.494
					l6.583,13.753l23.453-11.244L231.045,197.253z M229.515,202.488l-0.303,0.145l-0.001-0.017l0.264-0.213L229.515,202.488z"/>
				<path style="fill:#F4B298;" d="M234.862,220.157c0,0,3.121-8.566,3.093-9.82c-0.028-1.254-3.789-10.54-4.207-10.702
					c-0.418-0.162-16.506,3.738-16.018,6.524c0.487,2.786,4.318,2.02,6.268,1.88c1.95-0.139,6.199-0.627,6.199-0.627
					s-6.384,4.657-5.34,10.646C225.901,224.048,234.862,220.157,234.862,220.157z"/>
				<path style="fill:#FFC8AF;" d="M236.882,220.008c0,0,2.772-9.356,2.744-10.609c-0.028-1.254-3.789-10.54-4.207-10.703
					c-0.418-0.162-16.506,3.738-16.018,6.524c0.488,2.786,4.318,2.02,6.268,1.881c1.95-0.139,6.199-0.627,6.199-0.627
					s-7.104,5.363-6.059,11.352C226.853,223.816,236.882,220.008,236.882,220.008z"/>
				<path style="fill:#F4B298;" d="M210.906,215.421c0.992,1.02,12.596-5.438,17.712-8.009c1.705-0.857,1.579,0,1.579,0
					s-4.411,5.167-4.875,7.907c-0.464,2.739,0.348,3.552,0.348,3.552s-1.323-2.855-4.666-3.413c-3.343-0.557-6.045,0.45-7.87,0.627
					C211.308,216.261,210.906,215.421,210.906,215.421z"/>
				<polygon style="fill:#F4B298;" points="224.145,196.832 226.351,201.091 227.837,200.609 				"/>
			</g>
			<path style="fill:#F0F5F7;" d="M416.995,306.636c3.183-11.032,2.714-22.806-1.328-33.565l-28-74.374l-7.244,67.072v0.02
				l7.244,28.84l-4.601,37.925h26.442L416.995,306.636z"/>
			<polygon style="fill:#F0F5F7;" points="363.767,184.52 363.699,184.784 355.215,179.444 331.276,248.47 307.338,179.444 
				299.552,184.352 299.488,184.11 274.885,198.696 284.473,287.52 287.831,318.644 284.826,332.552 377.726,332.552 
				374.722,318.644 380.423,265.787 380.423,265.768 387.667,198.696 			"/>
			<polygon style="fill:#FBD15B;" points="355.21,179.446 339.429,242.448 331.283,274.965 323.123,242.421 307.342,179.446 
				314.519,175.191 331.283,184.105 348.033,175.191 			"/>
			<path style="fill:#F4B298;" d="M348.03,162.866v12.321l-16.753,8.923l-16.753-8.923v-12.321
				c4.315,5.995,10.232,9.704,16.753,9.704C337.798,172.571,343.715,168.861,348.03,162.866z"/>
			<path style="fill:#F0F5F7;" d="M274.886,198.696l9.587,88.824l-10.466,21.01c-3.222,6.444-12.419,6.483-15.699,0.059
				l-38.751-75.053l22.299-10.337l18.561,30.443L274.886,198.696z"/>
			
				<ellipse transform="matrix(0.8929 -0.4502 0.4502 0.8929 -25.8938 163.7437)" style="fill:#FFC8AF;" cx="331.277" cy="136.306" rx="25.456" ry="25.456"/>
			<ellipse style="fill:#FFC8AF;" cx="331.277" cy="143.423" rx="24.356" ry="32.573"/>
			<g>
				<g>
					<g id="XMLID_3_">
						<g>
							<path style="fill:#F3715F;" d="M337.351,164.762c-1.588,0.7-3.579,1.157-6.076,1.157c-2.497,0-4.489-0.458-6.076-1.157
								c0,0,1.55-3.105,6.076-3.105C335.807,161.656,337.351,164.762,337.351,164.762z"/>
							<path style="fill:#FA8B65;" d="M331.275,159.638h11.394c-0.791,1.647-2.341,3.816-5.317,5.124c0,0-1.545-3.105-6.076-3.105
								c-4.526,0-6.076,3.105-6.076,3.105c-2.971-1.308-4.521-3.477-5.312-5.124H331.275z"/>
							<path style="fill:#F9F8F7;" d="M331.275,157.394c3.993,0,12.158,0,12.158,0s-0.151,0.963-0.764,2.244h-11.394h-11.388
								c-0.613-1.281-0.764-2.244-0.764-2.244S327.287,157.394,331.275,157.394z"/>
						</g>
					</g>
				</g>
				<path style="fill:#F4B298;" d="M331.275,154.216c-1.685,0-3.204-2.048-2.038-2.048s2.038,0,2.038,0s0.872,0,2.038,0
					C334.479,152.169,332.96,154.216,331.275,154.216z"/>
				<path style="fill:#F4B298;" d="M331.275,168.339c-1.685,0-3.204-1.323-2.038-1.323s2.038,0,2.038,0s0.872,0,2.038,0
					C334.479,167.016,332.96,168.339,331.275,168.339z"/>
				<g>
					<g>
						<path style="fill:#282860;" d="M343.733,143.489c0,1.412-1.145,2.556-2.556,2.556c-1.412,0-2.556-1.145-2.556-2.556
							c0-1.412,1.145-2.557,2.556-2.557C342.589,140.932,343.733,142.077,343.733,143.489z"/>
						<path style="fill:#EDC7B2;" d="M348.883,149.93c0,0.929-1.594,1.682-3.56,1.682c-1.966,0-3.56-0.753-3.56-1.682
							c0-0.929,1.594-1.682,3.56-1.682C347.289,148.248,348.883,149.001,348.883,149.93z"/>
						<path style="fill:#282860;" d="M337.771,137.255c0.194-0.815,8.158-0.262,8.768,0.637
							C347.147,138.791,337.318,139.156,337.771,137.255z"/>
					</g>
					<g>
						<path style="fill:#282860;" d="M318.82,143.489c0,1.412,1.145,2.556,2.556,2.556c1.412,0,2.556-1.145,2.556-2.556
							c0-1.412-1.145-2.557-2.556-2.557C319.964,140.932,318.82,142.077,318.82,143.489z"/>
						<path style="fill:#EDC7B2;" d="M313.67,149.93c0,0.929,1.594,1.682,3.56,1.682c1.966,0,3.56-0.753,3.56-1.682
							c0-0.929-1.594-1.682-3.56-1.682C315.264,148.248,313.67,149.001,313.67,149.93z"/>
						<path style="fill:#282860;" d="M324.782,137.255c-0.194-0.815-8.158-0.262-8.768,0.637
							C315.406,138.791,325.235,139.156,324.782,137.255z"/>
					</g>
				</g>
				<g>
					<path style="fill:#F4B298;" d="M336.834,138.626c-1.638-0.304-2.355,4.197-2.186,5.206
						C334.816,144.842,338.684,138.97,336.834,138.626z"/>
					<path style="fill:#F4B298;" d="M325.719,138.626c1.638-0.304,2.355,4.197,2.186,5.206
						C327.737,144.842,323.869,138.97,325.719,138.626z"/>
				</g>
				<path style="fill:#F7ECDF;" d="M333.208,149.042c0.104,1.117,0.054,2.052-0.112,2.089c-0.166,0.037-0.384-0.839-0.488-1.955
					c-0.104-1.117-0.054-2.052,0.112-2.089C332.886,147.049,333.104,147.925,333.208,149.042z"/>
			</g>
			<g>
				<path style="fill:#FFC8AF;" d="M355.697,140.937c2.6-1.857,4.272,0.464,3.993,4.179c-0.279,3.714-3.064,10.029-5.479,8.265
					L355.697,140.937z"/>
				<path style="fill:#FFC8AF;" d="M306.856,140.937c-2.6-1.857-4.272,0.464-3.993,4.179c0.279,3.714,3.064,10.029,5.479,8.265
					L306.856,140.937z"/>
			</g>
			<path style="fill:#282860;" d="M331.28,121.576c-6.175,0-16.45-1.08-17.608,0c-1.158,1.08-1.382,11.561-2.496,12.258
				c-1.114,0.697-1.532,0.992-1.95,3.909c-0.418,2.917,0.188,12.11-0.881,11.413c-1.069-0.696-2.522-8.753-2.522-8.753
				s-2.167-10.608,2.522-18.316c4.689-7.707,10.719-12.443,22.933-12.443c12.214,0,18.245,4.736,22.933,12.443
				c4.689,7.708,2.521,18.316,2.521,18.316s-1.453,8.057-2.521,8.753c-1.069,0.697-0.464-8.497-0.881-11.413
				c-0.418-2.917-0.836-3.212-1.95-3.909c-1.114-0.696-1.339-11.178-2.496-12.258c-1.158-1.08-11.433,0-17.608,0"/>
			<polygon style="fill:#FBD15B;" points="240.872,223.655 239.204,220.705 219.557,229.155 221.406,232.678 			"/>
			<polygon style="fill:#DBAF42;" points="331.277,184.111 342.669,196.097 354.211,181.517 341.722,199.532 			"/>
			<polygon style="fill:#DBAF42;" points="331.283,184.111 319.89,196.097 308.348,181.517 320.837,199.532 			"/>
			<polygon style="fill:#EC827D;" points="334.285,191.079 336.03,189.112 331.283,184.11 326.535,189.112 328.28,191.079 
				328.266,191.079 323.123,242.421 331.283,274.965 339.429,242.448 			"/>
			<g>
				<g>
					<polygon style="fill:#DCE8EF;" points="284.473,287.52 279.509,241.535 276.224,304.079 					"/>
					<polygon style="fill:#DCE8EF;" points="260.417,253.642 257.59,264.071 253.966,243.061 					"/>
				</g>
				<polygon style="fill:#DCE8EF;" points="303.278,186.253 301.235,215.04 311.449,216.154 303.649,226.692 326.493,272.807 
					301.235,226.692 306.92,218.197 296.777,217.64 				"/>
			</g>
			<polygon style="fill:#DCE8EF;" points="359.44,186.253 361.483,215.04 351.268,216.154 359.069,226.692 336.225,272.807 
				361.483,226.692 355.798,218.197 365.94,217.64 			"/>
			<polygon style="fill:#DCE8EF;" points="380.423,265.768 383.22,239.873 385.824,287.288 			"/>
		</g>
		<g>
			<rect x="78.997" y="316.545" style="fill:#DCE8EF;" width="341.859" height="16.006"/>
			<rect x="108.836" y="322.651" style="fill:#A5B7C6;" width="306.222" height="3.796"/>
			<rect x="108.836" y="322.651" style="fill:#FD3476;" width="137.026" height="3.796"/>
			<polygon style="fill:#FD3476;" points="96.663,324.549 87.419,319.211 87.419,329.886 			"/>
			
				<linearGradient id="SVGID_00000071529180800303046900000012922255245315273108_" gradientUnits="userSpaceOnUse" x1="241.4159" y1="324.5486" x2="251.1814" y2="324.5486">
				<stop  offset="0" style="stop-color:#DF697B"/>
				<stop  offset="1" style="stop-color:#BE2773"/>
			</linearGradient>
			<path style="fill:url(#SVGID_00000071529180800303046900000012922255245315273108_);" d="M251.181,324.549
				c0,2.697-2.186,4.883-4.883,4.883c-2.697,0-4.883-2.186-4.883-4.883c0-2.697,2.186-4.883,4.883-4.883
				C248.995,319.666,251.181,321.852,251.181,324.549z"/>
		</g>
		<g>
			<g>
				<g>
					<g id="XMLID_555_">
						<g>
							<g>
								<path style="fill:#C3D3DD;" d="M155.299,272.595c0.666,1.155,0.768,2.928,0,3.371l-3.407,1.97
									c-0.156-0.975-0.492-1.975-0.973-2.811c-0.484-0.839-1.183-1.628-1.951-2.251l3.409-1.967
									C153.144,270.465,154.633,271.437,155.299,272.595z"/>
							</g>
							<g>
								<path style="fill:#DCE8EF;" d="M151.893,277.936c0.279,1.721,0.005,3.371-0.973,3.936l-1.636,0.942
									c0.235-1.819-0.251-4.21-1.287-6.002c-1.035-1.795-2.863-3.415-4.559-4.12l1.636-0.942c0.978-0.565,2.543,0.022,3.895,1.123
									c0.768,0.623,1.467,1.412,1.951,2.251C151.401,275.961,151.737,276.961,151.893,277.936z"/>
							</g>
							<g>
								<path style="fill:#F9F8F7;" d="M149.285,282.816h-0.004c-0.029,0.247-0.075,0.487-0.14,0.712l-1.271,0.734
									c0.057-0.215,0.1-0.448,0.132-0.684c0.236-1.826-0.251-4.225-1.289-6.022c-1.038-1.797-2.872-3.423-4.572-4.132
									c-0.226-0.09-0.455-0.172-0.67-0.229l1.278-0.738c0.226,0.061,0.455,0.14,0.687,0.236c1.697,0.705,3.523,2.324,4.558,4.117
									C149.031,278.606,149.518,280.994,149.285,282.816z"/>
							</g>
							<g>
								<path style="fill:#3A4D57;" d="M141.405,287.378h-0.004c-0.032,0.243-0.079,0.483-0.136,0.702l-3.215,1.855
									c1.88-1.088,1.647-4.987,0.201-7.494c-1.232-2.13-3.67-3.867-5.435-3.867c-0.433,0-0.82,0.1-1.156,0.29l3.237-1.869
									c0.211,0.054,0.423,0.132,0.637,0.218c1.704,0.709,3.537,2.334,4.579,4.139C141.15,283.15,141.637,285.548,141.405,287.378z
									"/>
							</g>
							<g>
								
									<linearGradient id="SVGID_00000054260612206991715970000012183356977024808893_" gradientUnits="userSpaceOnUse" x1="141.4787" y1="273.196" x2="141.4787" y2="288.0797">
									<stop  offset="0" style="stop-color:#68ACFF"/>
									<stop  offset="0.2291" style="stop-color:#65A7FF"/>
									<stop  offset="0.4985" style="stop-color:#5B99FF"/>
									<stop  offset="0.787" style="stop-color:#4A81FF"/>
									<stop  offset="1" style="stop-color:#3B6BFF"/>
								</linearGradient>
								<path style="fill:url(#SVGID_00000054260612206991715970000012183356977024808893_);" d="M148.003,283.579
									c-0.032,0.236-0.075,0.469-0.132,0.684l-6.606,3.817c0.057-0.218,0.104-0.458,0.136-0.702h0.004
									c0.233-1.829-0.254-4.228-1.292-6.026c-1.042-1.805-2.875-3.43-4.579-4.139c-0.215-0.086-0.426-0.165-0.637-0.218
									l6.577-3.799c0.215,0.057,0.444,0.14,0.67,0.229c1.701,0.709,3.534,2.334,4.572,4.132
									C147.753,279.354,148.24,281.753,148.003,283.579z"/>
							</g>
							<g>
								<path style="fill:#F9F8F7;" d="M142.752,272.459l-11.094,6.406c-0.858,0.497-1.333,1.593-1.347,3.098l-7.149,4.125
									c-0.937-0.762-1.942-1.363-2.898-1.702l20.428-11.79C141.255,272.27,141.974,272.251,142.752,272.459z"/>
							</g>
							<g>
								<path style="fill:#3A4D57;" d="M138.851,286.721c0.003,1.344-0.388,2.341-1.076,2.737c-0.249,0.147-0.546,0.219-0.882,0.219
									c-0.492,0-1.057-0.164-1.634-0.451l1.445-0.833c1.15-0.664,1.003-3.327,0.003-5.059c-1.003-1.735-3.234-3.196-4.385-2.532
									l-1.456,0.839c0.068-1.131,0.44-1.94,1.065-2.3c0.251-0.145,0.549-0.219,0.885-0.219c1.565,0,3.835,1.645,4.958,3.592
									C138.444,283.872,138.846,285.369,138.851,286.721z"/>
							</g>
							<g>
								<path style="fill:#C3D3DD;" d="M136.707,283.334c1,1.732,1.147,4.395-0.003,5.059l-1.445,0.833l-0.557,0.322h-0.003
									l-7.155,4.13h-0.003c-0.232-1.464-0.735-2.961-1.459-4.218c-0.724-1.254-1.77-2.437-2.92-3.374l7.149-4.125l0.555-0.322
									l1.456-0.839C133.472,280.138,135.704,281.599,136.707,283.334z"/>
							</g>
							<g>
								<path style="fill:#F9F8F7;" d="M134.702,289.549c0.759,0.426,1.522,0.675,2.191,0.675c0.432,0,0.822-0.098,1.155-0.29
									l11.094-6.406c-0.205,0.779-0.582,1.393-1.145,1.718l-20.431,11.793c0.186-0.997,0.169-2.166-0.025-3.36h0.003l7.155-4.13
									H134.702z"/>
							</g>
							<g>
								<path style="fill:#666F77;" d="M130.312,281.962c0.014-1.505,0.489-2.601,1.347-3.098c0.336-0.191,0.724-0.29,1.158-0.29
									c1.765,0,4.201,1.735,5.434,3.866c1.445,2.505,1.68,6.406-0.202,7.493c-0.333,0.191-0.724,0.29-1.155,0.29
									c-0.669,0-1.432-0.249-2.191-0.675l0.557-0.322c0.576,0.287,1.142,0.451,1.634,0.451c0.336,0,0.634-0.071,0.882-0.219
									c0.688-0.396,1.079-1.393,1.076-2.737c-0.005-1.352-0.407-2.849-1.076-4.007c-1.123-1.948-3.393-3.592-4.958-3.592
									c-0.336,0-0.634,0.074-0.885,0.219c-0.626,0.361-0.997,1.169-1.065,2.3L130.312,281.962z"/>
							</g>
							<g>
								<path style="fill:#F9F8F7;" d="M124.622,290.305c2.002,3.467,2.3,8.788,0.003,10.121h-0.003
									c-1.467,0.847-3.816-0.036-5.846-1.691l3.693-2.134c1.15-0.664,1.002-3.327,0.003-5.059
									c-1.003-1.735-3.234-3.196-4.384-2.532l-3.691,2.134c-0.415-2.579-0.005-5.051,1.461-5.898
									C118.155,283.918,122.619,286.839,124.622,290.305z"/>
							</g>
							<g>
								<path style="fill:#C3D3DD;" d="M122.472,291.543c1,1.732,1.147,4.395-0.003,5.059l-3.693,2.134l-4.778,2.762
									c0.093-1.401-0.3-3.125-1.063-4.445c-0.762-1.319-2.06-2.521-3.319-3.144l4.781-2.764l3.691-2.134
									C119.237,288.347,121.469,289.808,122.472,291.543z"/>
							</g>
							<g>
								<path style="fill:#DCE8EF;" d="M126.083,299.582l-1.459,0.844c2.297-1.333,2-6.655-0.003-10.121
									c-2.002-3.467-6.466-6.387-8.764-5.059l1.459-0.844h0.003c0.789-0.456,1.833-0.41,2.945-0.016
									c0.956,0.339,1.961,0.94,2.898,1.702c1.15,0.937,2.196,2.12,2.92,3.374c0.724,1.257,1.227,2.754,1.459,4.218
									c0.194,1.194,0.21,2.363,0.025,3.36C127.356,298.2,126.873,299.126,126.083,299.582z"/>
							</g>
							<g>
								<path style="fill:#F9F8F7;" d="M112.935,303.8l-1.459,0.844c1.533-0.885,1.333-4.436,0-6.747
									c-1.336-2.314-4.311-4.259-5.843-3.374l1.459-0.844h0.003c0.656-0.38,1.579-0.238,2.521,0.23
									c1.259,0.623,2.557,1.825,3.319,3.144c0.762,1.319,1.156,3.043,1.063,4.445c-0.066,1.052-0.404,1.923-1.06,2.303H112.935z"
									/>
							</g>
							<g>
								<path style="fill:#DCE8EF;" d="M111.476,297.897c1.333,2.311,1.533,5.862,0,6.747c-1.533,0.885-4.51-1.063-5.843-3.374
									c-1.336-2.314-1.533-5.862,0-6.747C107.166,293.638,110.14,295.583,111.476,297.897z"/>
							</g>
						</g>
					</g>
				</g>
				<g>
					<path style="fill:#DCE8EF;" d="M155.3,272.774c-0.062,0-0.122-0.032-0.155-0.09c-0.049-0.086-0.02-0.195,0.066-0.244
						l11.687-6.749c0.085-0.05,0.195-0.02,0.245,0.065c0.049,0.086,0.02,0.195-0.066,0.244l-11.687,6.749
						C155.362,272.767,155.331,272.774,155.3,272.774z"/>
				</g>
			</g>
			<g>
				<g>
					<g id="XMLID_553_">
						<g>
							<g>
								<path style="fill:#C3D3DD;" d="M162.841,288.054c0.463,0.803,0.533,2.034,0,2.341l-2.366,1.368
									c-0.108-0.677-0.341-1.372-0.675-1.952c-0.336-0.582-0.822-1.131-1.355-1.563l2.368-1.366
									C161.345,286.575,162.378,287.25,162.841,288.054z"/>
							</g>
							<g>
								<path style="fill:#DCE8EF;" d="M160.476,291.763c0.193,1.195,0.004,2.341-0.675,2.734l-1.136,0.654
									c0.163-1.263-0.174-2.923-0.893-4.168c-0.719-1.246-1.988-2.371-3.166-2.861l1.136-0.654
									c0.679-0.393,1.766,0.015,2.705,0.78c0.533,0.433,1.019,0.981,1.355,1.563C160.134,290.392,160.367,291.086,160.476,291.763
									z"/>
							</g>
							<g>
								<path style="fill:#F9F8F7;" d="M158.665,295.153h-0.002c-0.02,0.171-0.052,0.338-0.097,0.495l-0.883,0.51
									c0.04-0.149,0.07-0.311,0.092-0.475c0.164-1.268-0.174-2.934-0.895-4.182c-0.721-1.248-1.994-2.377-3.175-2.869
									c-0.157-0.062-0.316-0.119-0.465-0.159l0.888-0.512c0.157,0.042,0.316,0.097,0.477,0.164
									c1.179,0.49,2.447,1.614,3.165,2.859C158.488,292.229,158.826,293.887,158.665,295.153z"/>
							</g>
							<g>
								<path style="fill:#3A4D57;" d="M153.192,298.32h-0.003c-0.022,0.169-0.055,0.336-0.094,0.487l-2.233,1.288
									c1.305-0.756,1.144-3.464,0.139-5.204c-0.855-1.479-2.549-2.685-3.774-2.685c-0.301,0-0.569,0.07-0.803,0.201l2.248-1.298
									c0.147,0.037,0.293,0.092,0.443,0.152c1.184,0.492,2.457,1.621,3.18,2.874C153.015,295.384,153.354,297.05,153.192,298.32z"
									/>
							</g>
							<g>
								<path style="fill:#EC827D;" d="M157.775,295.682c-0.022,0.164-0.052,0.326-0.092,0.475l-4.588,2.651
									c0.04-0.152,0.072-0.318,0.094-0.487h0.003c0.162-1.271-0.177-2.936-0.898-4.185c-0.724-1.253-1.997-2.382-3.18-2.874
									c-0.149-0.06-0.296-0.114-0.443-0.152l4.568-2.638c0.149,0.04,0.308,0.097,0.465,0.159c1.181,0.492,2.454,1.621,3.175,2.869
									C157.6,292.748,157.939,294.414,157.775,295.682z"/>
							</g>
							<g>
								<path style="fill:#F9F8F7;" d="M154.128,287.96l-7.704,4.449c-0.596,0.345-0.926,1.106-0.935,2.151l-4.965,2.865
									c-0.651-0.529-1.349-0.947-2.013-1.182l14.187-8.188C153.088,287.829,153.587,287.815,154.128,287.96z"/>
							</g>
							<g>
								<path style="fill:#3A4D57;" d="M151.419,297.864c0.002,0.933-0.269,1.626-0.747,1.901c-0.173,0.102-0.379,0.152-0.613,0.152
									c-0.341,0-0.734-0.114-1.134-0.313l1.004-0.579c0.799-0.461,0.696-2.311,0.002-3.513c-0.696-1.205-2.246-2.22-3.045-1.759
									l-1.011,0.582c0.047-0.785,0.305-1.347,0.74-1.597c0.174-0.101,0.381-0.152,0.615-0.152c1.087,0,2.664,1.142,3.443,2.495
									C151.136,295.886,151.415,296.925,151.419,297.864z"/>
							</g>
							<g>
								<path style="fill:#C3D3DD;" d="M149.929,295.512c0.694,1.203,0.797,3.052-0.002,3.513l-1.004,0.579l-0.387,0.224h-0.002
									l-4.969,2.868h-0.002c-0.161-1.017-0.51-2.057-1.013-2.929c-0.503-0.871-1.229-1.692-2.028-2.343l4.965-2.865l0.385-0.224
									l1.011-0.582C147.683,293.292,149.233,294.307,149.929,295.512z"/>
							</g>
							<g>
								<path style="fill:#F9F8F7;" d="M148.537,299.828c0.527,0.296,1.057,0.469,1.521,0.469c0.3,0,0.571-0.068,0.803-0.201
									l7.704-4.449c-0.142,0.541-0.404,0.968-0.795,1.193l-14.189,8.19c0.129-0.692,0.118-1.504-0.017-2.333h0.002l4.969-2.868
									H148.537z"/>
							</g>
							<g>
								<path style="fill:#666F77;" d="M145.488,294.56c0.009-1.045,0.34-1.806,0.935-2.151c0.233-0.133,0.503-0.201,0.804-0.201
									c1.226,0,2.918,1.205,3.773,2.685c1.004,1.74,1.167,4.449-0.14,5.204c-0.231,0.133-0.503,0.201-0.803,0.201
									c-0.465,0-0.994-0.173-1.521-0.469l0.387-0.224c0.4,0.199,0.793,0.313,1.134,0.313c0.233,0,0.44-0.049,0.613-0.152
									c0.478-0.275,0.749-0.967,0.747-1.901c-0.004-0.939-0.283-1.979-0.747-2.783c-0.78-1.353-2.356-2.495-3.443-2.495
									c-0.233,0-0.44,0.051-0.615,0.152c-0.434,0.25-0.692,0.812-0.74,1.597L145.488,294.56z"/>
							</g>
							<g>
								<path style="fill:#F9F8F7;" d="M141.537,300.353c1.391,2.408,1.597,6.103,0.002,7.029h-0.002
									c-1.019,0.588-2.65-0.025-4.06-1.174l2.565-1.482c0.799-0.461,0.696-2.311,0.002-3.513c-0.696-1.205-2.246-2.22-3.045-1.759
									l-2.563,1.482c-0.288-1.791-0.004-3.508,1.015-4.096C137.046,295.918,140.146,297.946,141.537,300.353z"/>
							</g>
							<g>
								<path style="fill:#C3D3DD;" d="M140.044,301.213c0.694,1.203,0.797,3.052-0.002,3.513l-2.565,1.482l-3.318,1.918
									c0.064-0.973-0.209-2.17-0.738-3.087c-0.529-0.916-1.43-1.751-2.305-2.184l3.32-1.92l2.563-1.482
									C137.797,298.993,139.347,300.008,140.044,301.213z"/>
							</g>
							<g>
								<path style="fill:#DCE8EF;" d="M142.552,306.796l-1.013,0.586c1.596-0.926,1.389-4.621-0.002-7.029
									c-1.391-2.407-4.49-4.435-6.086-3.513l1.013-0.586h0.002c0.548-0.317,1.273-0.285,2.045-0.011
									c0.664,0.235,1.362,0.653,2.013,1.182c0.799,0.651,1.525,1.472,2.028,2.343c0.503,0.873,0.852,1.912,1.013,2.929
									c0.135,0.829,0.146,1.641,0.017,2.333C143.436,305.836,143.1,306.479,142.552,306.796z"/>
							</g>
							<g>
								<path style="fill:#F9F8F7;" d="M133.421,309.725l-1.013,0.586c1.064-0.615,0.926-3.081,0-4.686
									c-0.928-1.607-2.994-2.958-4.058-2.343l1.013-0.586h0.002c0.455-0.264,1.096-0.165,1.751,0.159
									c0.875,0.433,1.776,1.267,2.305,2.184c0.529,0.916,0.802,2.113,0.738,3.087c-0.046,0.73-0.281,1.336-0.736,1.599H133.421z"
									/>
							</g>
							<g>
								<path style="fill:#DCE8EF;" d="M132.408,305.625c0.926,1.605,1.064,4.071,0,4.686c-1.064,0.615-3.132-0.738-4.058-2.343
									c-0.928-1.607-1.064-4.071,0-4.686C129.414,302.668,131.48,304.019,132.408,305.625z"/>
							</g>
						</g>
					</g>
				</g>
				<g>
					<path style="fill:#DCE8EF;" d="M162.842,288.179c-0.043,0-0.085-0.022-0.108-0.062c-0.034-0.059-0.014-0.135,0.046-0.17
						l8.116-4.687c0.059-0.035,0.135-0.014,0.17,0.045c0.034,0.059,0.014,0.135-0.046,0.17l-8.116,4.687
						C162.885,288.173,162.863,288.179,162.842,288.179z"/>
				</g>
			</g>
			<g>
				<g>
					<g id="XMLID_547_">
						<g>
							<path style="fill:#EC827D;" d="M161.444,151.956c1.538,0.89,1.341,4.45,0,6.774c0,0.006-0.006,0.006-0.006,0.011
								c-1.34,2.324-4.335,4.28-5.873,3.39c-1.544-0.89-1.341-4.461,0-6.785C156.906,153.022,159.9,151.066,161.444,151.956z"/>
							<path style="fill:#BEE1F4;" d="M161.444,168.938c1.538,0.89,1.341,4.45,0,6.774c0,0.006-0.006,0.006-0.006,0.011
								c-1.34,2.324-4.335,4.28-5.873,3.39c-1.544-0.89-1.341-4.461,0-6.785C156.906,170.004,159.9,168.048,161.444,168.938z"/>
							<path style="fill:#DCE8EF;" d="M161.444,185.921c1.538,0.89,1.341,4.45,0,6.774c0,0.005-0.006,0.005-0.006,0.011
								c-1.34,2.324-4.335,4.28-5.873,3.39c-1.544-0.89-1.341-4.456,0-6.785C156.906,186.986,159.9,185.03,161.444,185.921z"/>
							<path style="fill:#DCE8EF;" d="M161.444,192.695v6.763l-64.638,37.316v-57.677l64.638-37.321v10.18l-2.939-1.698
								c-1.538-0.89-4.533,1.066-5.879,3.39c-1.34,2.324-1.538,5.895,0,6.785v0.006l2.939,1.692c1.538,0.89,4.533-1.066,5.873-3.39
								c0-0.005,0.006-0.005,0.006-0.011v10.208l-2.939-1.698c-1.538-0.89-4.533,1.066-5.879,3.39c-1.34,2.324-1.538,5.895,0,6.785
								v0.006l2.939,1.692c1.538,0.89,4.533-1.066,5.873-3.39c0-0.005,0.006-0.005,0.006-0.011v10.208l-2.939-1.698v0.006
								c-1.538-0.89-4.533,1.066-5.879,3.39c-1.34,2.324-1.538,5.895,0,6.785l2.939,1.692c1.538,0.89,4.533-1.066,5.873-3.39
								C161.438,192.7,161.444,192.7,161.444,192.695z"/>
							<polygon style="fill:#C3D3DD;" points="161.444,141.776 96.806,179.097 85.054,172.312 149.692,134.991 							"/>
							<path style="fill:#D66565;" d="M155.565,155.346c-1.341,2.324-1.544,5.895,0,6.785l-2.939-1.692v-0.006
								c-1.538-0.89-1.34-4.461,0-6.785c1.346-2.324,4.34-4.28,5.879-3.39l2.939,1.698
								C159.9,151.066,156.906,153.022,155.565,155.346z"/>
							<path style="fill:#89C9E5;" d="M155.565,172.328c-1.341,2.324-1.544,5.895,0,6.785l-2.939-1.692v-0.006
								c-1.538-0.89-1.34-4.461,0-6.785c1.346-2.324,4.34-4.28,5.879-3.39l2.939,1.698
								C159.9,168.048,156.906,170.004,155.565,172.328z"/>
							<path style="fill:#A5B7C6;" d="M155.565,189.31c-1.341,2.329-1.544,5.895,0,6.785l-2.939-1.692
								c-1.538-0.89-1.34-4.461,0-6.785c1.346-2.324,4.34-4.28,5.879-3.39v-0.006l2.939,1.698
								C159.9,185.03,156.906,186.986,155.565,189.31z"/>
							<polygon style="fill:#A5B7C6;" points="96.806,179.097 96.806,236.773 85.054,229.988 85.054,172.312 							"/>
						</g>
					</g>
				</g>
				<polygon style="fill:#3A4D57;" points="102.682,182.491 143.814,158.744 143.814,202.846 102.682,226.594 				"/>
				<g>
					<g>
						<polygon style="fill:#3A4D57;" points="147.765,194.644 147.785,201.38 140.829,205.396 140.81,198.66 						"/>
					</g>
					<g>
						<polygon style="fill:#3A4D57;" points="128.959,189.459 129.25,188.27 129.764,188.994 						"/>
					</g>
					<g>
						<polygon style="fill:#49626D;" points="101.902,205.08 102.269,204.869 102.669,204.637 102.672,205.488 102.272,205.719 
							101.905,205.931 						"/>
					</g>
					<g style="enable-background:new    ;">
						<g>
							<polygon style="fill:#49626D;" points="147.742,186.207 148.108,185.995 148.111,186.853 147.744,187.065 140.788,191.081 
								140.786,190.223 							"/>
						</g>
						<g>
							<polygon style="fill:#3A4D57;" points="140.069,199.088 140.088,205.824 133.126,209.844 133.107,203.107 							"/>
						</g>
						<g>
							<polygon style="fill:#49626D;" points="147.72,178.628 148.087,178.416 148.089,179.266 147.723,179.478 147.042,179.871 
								147.04,179.02 							"/>
						</g>
						<g>
							<polygon style="fill:#49626D;" points="133.107,203.107 133.104,202.257 140.067,198.237 140.069,199.088 							"/>
						</g>
						<g>
							<polygon style="fill:#49626D;" points="140.045,190.65 140.027,184.351 140.768,183.923 140.786,190.223 140.788,191.081 
								140.807,197.809 140.81,198.66 140.829,205.396 140.83,205.818 140.089,206.245 140.088,205.824 140.069,199.088 
								140.067,198.237 140.048,191.508 							"/>
						</g>
						<g>
							<polygon style="fill:#3A4D57;" points="140.048,191.508 140.067,198.237 133.104,202.257 133.085,195.528 							"/>
						</g>
						<g>
							<polygon style="fill:#49626D;" points="133.085,195.528 133.083,194.67 140.045,190.65 140.048,191.508 							"/>
						</g>
						<g>
							<polygon style="fill:#3A4D57;" points="147.04,179.02 147.039,178.591 140.763,182.214 140.745,175.915 147.701,171.899 
								147.72,178.628 							"/>
						</g>
						<g>
							<polygon style="fill:#3A4D57;" points="140.027,184.351 140.045,190.65 133.083,194.67 133.065,188.371 							"/>
						</g>
						<g>
							<polygon style="fill:#49626D;" points="147.699,171.048 148.065,170.837 148.068,171.687 147.701,171.899 140.745,175.915 
								140.743,175.064 							"/>
						</g>
						<g>
							<polygon style="fill:#3A4D57;" points="132.345,195.956 132.364,202.684 125.408,206.7 125.4,203.984 126.547,199.303 
															"/>
						</g>
						<g>
							<polygon style="fill:#49626D;" points="132.342,195.097 132.324,188.798 133.065,188.371 133.083,194.67 133.085,195.528 
								133.104,202.257 133.107,203.107 133.126,209.844 133.127,210.265 132.387,210.693 132.385,210.271 132.366,203.535 
								132.364,202.684 132.345,195.956 							"/>
						</g>
						<g>
							<polygon style="fill:#49626D;" points="117.711,211.144 121.593,208.903 121.782,209.646 117.714,211.994 							"/>
						</g>
						<g>
							<polygon style="fill:#49626D;" points="124.38,208.145 124.624,207.153 124.667,207.128 124.67,207.978 							"/>
						</g>
						<g>
							<polygon style="fill:#3A4D57;" points="124.667,207.128 124.624,207.153 124.667,206.975 							"/>
						</g>
						<g>
							<polygon style="fill:#3A4D57;" points="123.1,207.918 121.633,202.14 124.648,200.399 124.652,201.579 							"/>
						</g>
						<g>
							<polygon style="fill:#49626D;" points="121.633,202.14 121.442,201.391 124.646,199.541 124.648,200.399 							"/>
						</g>
						<g>
							<polygon style="fill:#3A4D57;" points="140.005,176.342 140.023,182.642 133.06,186.662 133.042,180.362 							"/>
						</g>
						<g>
							<polygon style="fill:#3A4D57;" points="130.194,189.598 130.41,189.903 132.324,188.798 132.342,195.097 126.792,198.302 
								128.716,190.452 							"/>
						</g>
						<g>
							<polygon style="fill:#49626D;" points="125.367,192.385 125.365,191.534 127.399,190.36 127.156,191.352 							"/>
						</g>
						<g>
							<polygon style="fill:#3A4D57;" points="120.101,203.025 121.593,208.903 117.711,211.144 117.692,204.415 							"/>
						</g>
						<g>
							<polygon style="fill:#3A4D57;" points="116.974,212.422 116.993,219.158 110.03,223.178 110.011,216.442 							"/>
						</g>
						<g>
							<polygon style="fill:#49626D;" points="110.011,216.442 110.008,215.591 116.971,211.571 116.974,212.422 							"/>
						</g>
						<g>
							<polygon style="fill:#3A4D57;" points="147.658,156.733 147.677,163.461 140.721,167.477 140.702,160.749 							"/>
						</g>
						<g>
							<polygon style="fill:#3A4D57;" points="121.442,201.391 119.949,195.513 124.627,192.812 124.646,199.541 							"/>
						</g>
						<g>
							<polygon style="fill:#3A4D57;" points="139.983,168.755 140.002,175.492 133.04,179.512 133.021,172.775 							"/>
						</g>
						<g>
							<polygon style="fill:#49626D;" points="133.021,172.775 133.018,171.925 139.981,167.905 139.983,168.755 							"/>
						</g>
						<g>
							<polygon style="fill:#3A4D57;" points="128.872,184.344 127.399,190.36 125.365,191.534 125.346,184.806 132.302,180.79 
								132.32,187.089 131.259,187.701 							"/>
						</g>
						<g>
							<polygon style="fill:#49626D;" points="125.346,184.806 125.343,183.955 132.299,179.939 132.302,180.79 							"/>
						</g>
						<g>
							<polygon style="fill:#3A4D57;" points="118.418,196.397 119.91,202.275 117.69,203.557 117.671,196.828 							"/>
						</g>
						<g>
							<polygon style="fill:#3A4D57;" points="116.952,204.843 116.971,211.571 110.008,215.591 109.989,208.863 							"/>
						</g>
						<g>
							<polygon style="fill:#3A4D57;" points="109.271,216.869 109.29,223.605 102.334,227.621 102.315,220.885 							"/>
						</g>
						<g>
							<polygon style="fill:#49626D;" points="101.945,220.246 102.312,220.035 109.268,216.018 109.271,216.869 102.315,220.885 
								101.948,221.097 							"/>
						</g>
						<g>
							<polygon style="fill:#49626D;" points="109.241,206.334 109.664,207.154 109.981,206.037 109.987,208.004 109.989,208.863 
								110.008,215.591 110.011,216.442 110.03,223.178 110.031,223.599 109.291,224.027 109.29,223.605 109.271,216.869 
								109.268,216.018 109.249,209.29 109.247,208.432 							"/>
						</g>
						<g>
							<polygon style="fill:#3A4D57;" points="139.962,161.176 139.981,167.905 133.018,171.925 132.999,165.196 							"/>
						</g>
						<g>
							<polygon style="fill:#3A4D57;" points="119.761,194.77 118.268,188.892 124.605,185.233 124.624,191.962 							"/>
						</g>
						<g>
							<polygon style="fill:#3A4D57;" points="116.931,197.256 116.95,203.984 109.987,208.004 109.981,206.037 111.602,200.332 
															"/>
						</g>
						<g>
							<polygon style="fill:#49626D;" points="125.324,177.219 125.322,176.368 132.278,172.352 132.28,173.203 							"/>
						</g>
						<g>
							<polygon style="fill:#49626D;" points="111.602,200.332 111.892,199.313 116.928,196.405 116.931,197.256 							"/>
						</g>
						<g>
							<polygon style="fill:#49626D;" points="109.968,201.276 109.965,200.425 110.301,200.231 110.012,201.25 							"/>
						</g>
						<g>
							<polygon style="fill:#49626D;" points="109.03,201.817 108.694,201.159 109.225,200.852 109.228,201.703 							"/>
						</g>
						<g>
							<polygon style="fill:#49626D;" points="101.924,212.66 102.291,212.448 109.247,208.432 109.249,209.29 102.293,213.306 
								101.926,213.518 							"/>
						</g>
						<g>
							<polygon style="fill:#3A4D57;" points="114.182,191.251 116.737,189.776 116.911,190.463 116.928,196.405 111.892,199.313 
															"/>
						</g>
						<g>
							<polygon style="fill:#49626D;" points="114.472,190.232 116.548,189.033 116.737,189.776 114.182,191.251 							"/>
						</g>
						<g>
							<polygon style="fill:#3A4D57;" points="147.744,187.065 147.763,193.793 140.807,197.809 140.788,191.081 							"/>
						</g>
						<g>
							<polygon style="fill:#3A4D57;" points="132.366,203.535 132.385,210.271 125.429,214.287 125.41,207.551 							"/>
						</g>
						<g>
							<polygon style="fill:#49626D;" points="126.547,199.303 126.792,198.302 132.342,195.097 132.345,195.956 							"/>
						</g>
						<g>
							<polygon style="fill:#3A4D57;" points="132.28,173.203 132.299,179.939 125.343,183.955 125.324,177.219 							"/>
						</g>
						<g>
							<polygon style="fill:#49626D;" points="116.928,196.405 116.911,190.463 117.661,193.416 117.668,195.978 117.671,196.828 
								117.69,203.557 117.692,204.415 117.711,211.144 117.714,211.994 117.733,218.731 117.734,219.152 116.994,219.579 
								116.993,219.158 116.974,212.422 116.971,211.571 116.952,204.843 116.95,203.984 116.931,197.256 							"/>
						</g>
						<g>
							<polygon style="fill:#49626D;" points="118.268,188.892 118.079,188.149 124.603,184.383 124.605,185.233 							"/>
						</g>
						<g>
							<polygon style="fill:#3A4D57;" points="109.249,209.29 109.268,216.018 102.312,220.035 102.293,213.306 							"/>
						</g>
						<g>
							<polygon style="fill:#3A4D57;" points="114.472,190.232 115.729,185.806 116.548,189.033 							"/>
						</g>
						<g>
							<polygon style="fill:#49626D;" points="124.561,169.638 125.302,169.211 125.303,169.64 125.322,176.368 125.324,177.219 
								125.343,183.955 125.346,184.806 125.365,191.534 125.367,192.385 125.385,198.585 124.652,201.579 124.648,200.399 
								124.646,199.541 124.627,192.812 124.624,191.962 124.605,185.233 124.603,184.383 124.584,177.646 124.581,176.796 
								124.562,170.067 							"/>
						</g>
						<g>
							<polygon style="fill:#3A4D57;" points="112.59,192.17 110.301,200.231 109.965,200.425 109.946,193.697 							"/>
						</g>
						<g>
							<polygon style="fill:#3A4D57;" points="116.892,183.474 116.585,182.265 116.888,182.09 							"/>
						</g>
						<g>
							<polygon style="fill:#49626D;" points="109.946,193.697 109.944,192.846 112.88,191.151 112.59,192.17 							"/>
						</g>
						<g>
							<polygon style="fill:#49626D;" points="116.585,182.265 116.396,181.522 116.885,181.239 116.888,182.09 							"/>
						</g>
						<g>
							<polygon style="fill:#3A4D57;" points="109.241,206.334 109.247,208.432 102.291,212.448 102.272,205.719 102.672,205.488 
								102.673,205.917 107.568,203.091 							"/>
						</g>
						<g>
							<polygon style="fill:#3A4D57;" points="124.562,170.067 124.581,176.796 117.625,180.812 117.606,174.083 							"/>
						</g>
						<g>
							<polygon style="fill:#49626D;" points="116.865,174.081 117.605,173.654 117.606,174.083 117.625,180.812 117.628,181.662 
								117.641,186.426 116.892,183.474 116.888,182.09 116.885,181.239 116.866,174.511 							"/>
						</g>
						<g>
							<polygon style="fill:#49626D;" points="109.925,186.11 109.922,185.259 115.461,182.061 115.172,183.081 							"/>
						</g>
						<g>
							<polygon style="fill:#3A4D57;" points="109.229,202.205 109.03,201.817 109.228,201.703 							"/>
						</g>
						<g>
							<polygon style="fill:#3A4D57;" points="102.668,204.208 102.669,204.637 102.269,204.869 102.25,198.14 109.206,194.124 
								109.225,200.852 108.694,201.159 108.524,200.828 							"/>
						</g>
						<g>
							<polygon style="fill:#49626D;" points="101.881,197.501 102.248,197.289 109.204,193.273 109.206,194.124 102.25,198.14 
								101.883,198.352 							"/>
						</g>
						<g>
							<polygon style="fill:#3A4D57;" points="116.027,180.069 115.461,182.061 109.922,185.259 109.903,178.531 116.866,174.511 
								116.885,181.239 116.396,181.522 							"/>
						</g>
						<g>
							<polygon style="fill:#3A4D57;" points="109.185,186.537 109.204,193.273 102.248,197.289 102.229,190.553 							"/>
						</g>
						<g>
							<polygon style="fill:#49626D;" points="109.162,178.529 109.902,178.101 109.903,178.531 109.922,185.259 109.925,186.11 
								109.944,192.846 109.946,193.697 109.965,200.425 109.968,201.276 109.968,201.404 109.558,202.848 109.229,202.205 
								109.228,201.703 109.225,200.852 109.206,194.124 109.204,193.273 109.185,186.537 109.182,185.686 109.163,178.958 							
								"/>
						</g>
						<g>
							<polygon style="fill:#49626D;" points="124.667,207.128 124.667,206.975 125.4,203.984 125.408,206.7 125.41,207.551 
								125.429,214.287 125.43,214.709 124.69,215.136 124.689,214.714 124.67,207.978 							"/>
						</g>
						<g>
							<polygon style="fill:#3A4D57;" points="125.367,192.385 127.156,191.352 125.385,198.585 							"/>
						</g>
						<g>
							<polygon style="fill:#3A4D57;" points="109.968,201.276 110.012,201.25 109.968,201.404 							"/>
						</g>
						<g>
							<polygon style="fill:#BEE1F4;" points="116.027,180.069 116.396,181.522 116.585,182.265 116.892,183.474 117.641,186.426 
								118.079,188.149 118.268,188.892 119.761,194.77 119.949,195.513 121.442,201.391 121.633,202.14 123.1,207.918 
								124.652,201.579 125.385,198.585 127.156,191.352 127.399,190.36 128.872,184.344 131.259,187.701 132.32,187.089 
								133.06,186.662 140.023,182.642 140.763,182.214 147.039,178.591 147.04,179.02 147.042,179.871 147.043,180.3 
								140.768,183.923 140.027,184.351 133.065,188.371 132.324,188.798 130.41,189.903 130.194,189.598 129.764,188.994 
								129.25,188.27 128.959,189.459 128.716,190.452 126.792,198.302 126.547,199.303 125.4,203.984 124.667,206.975 
								124.624,207.153 124.38,208.145 122.917,214.118 121.782,209.646 121.593,208.903 120.101,203.025 119.91,202.275 
								118.418,196.397 118.229,195.654 117.661,193.416 116.911,190.463 116.737,189.776 116.548,189.033 115.729,185.806 
								114.472,190.232 114.182,191.251 111.892,199.313 111.602,200.332 109.981,206.037 109.664,207.154 109.241,206.334 
								107.568,203.091 102.673,205.917 102.672,205.488 102.669,204.637 102.668,204.208 108.524,200.828 108.694,201.159 
								109.03,201.817 109.229,202.205 109.558,202.848 109.968,201.404 110.301,200.231 112.59,192.17 112.88,191.151 
								115.172,183.081 115.461,182.061 							"/>
						</g>
						<g>
							<polygon style="fill:#3A4D57;" points="109.163,178.958 109.182,185.686 102.226,189.702 102.207,182.974 							"/>
						</g>
						<g>
							<path style="fill:#3A4D57;" d="M150.492,152.403l-51.133,29.522l0.142,50.02l51.133-29.522L150.492,152.403z M101.596,228.9
								l-0.131-46.356l46.931-27.096l0.131,46.356L101.596,228.9"/>
						</g>
						<g>
							<polygon style="fill:#3A4D57;" points="132.259,165.624 132.278,172.352 125.322,176.368 125.303,169.64 							"/>
						</g>
						<g>
							<path style="fill:#49626D;" d="M148.527,201.803l-0.131-46.356l-46.931,27.096l0.131,46.356L148.527,201.803z
								 M102.207,182.974l6.956-4.016l-0.001-0.429l0.74-0.427l0.001,0.429l6.963-4.02l-0.001-0.429l0.74-0.427l0.001,0.429
								l6.956-4.016l-0.001-0.429l0.74-0.427l0.001,0.429l6.956-4.016l-0.001-0.429l0.74-0.427l0.001,0.429l6.963-4.02l-0.001-0.429
								l0.74-0.427l0.001,0.429l6.956-4.016l0.019,6.729l0.367-0.212l0.002,0.851l-0.367,0.212l0.019,6.736l0.367-0.212l0.002,0.851
								l-0.367,0.212l0.019,6.729l0.367-0.212l0.002,0.851l-0.367,0.212l0.019,6.729l0.367-0.212l0.002,0.858l-0.367,0.212
								l0.019,6.729l0.367-0.212l0.002,0.851l-0.367,0.212l0.019,6.736l-6.956,4.016l0.001,0.421l-0.74,0.428l-0.001-0.421
								l-6.963,4.02l0.001,0.421l-0.74,0.427l-0.001-0.421l-6.956,4.016l0.001,0.422l-0.74,0.427l-0.001-0.421l-6.956,4.016
								l0.001,0.421l-0.74,0.427l-0.001-0.421l-6.963,4.02l0.001,0.421l-0.74,0.427l-0.001-0.421l-6.956,4.016l-0.019-6.736
								l-0.367,0.212l-0.002-0.851l0.367-0.212l-0.019-6.729l-0.367,0.212l-0.002-0.858l0.367-0.212l-0.019-6.729l-0.367,0.212
								l-0.002-0.851l0.367-0.212l-0.019-6.729l-0.367,0.212l-0.002-0.851l0.367-0.212l-0.019-6.736l-0.367,0.212l-0.002-0.851
								l0.367-0.212L102.207,182.974"/>
						</g>
						<g>
							<polygon style="fill:#49626D;" points="148.13,193.582 147.763,193.794 140.807,197.809 140.809,198.66 147.765,194.644 
								148.132,194.432 							"/>
						</g>
						<g>
							<polygon style="fill:#49626D;" points="125.41,207.551 125.408,206.7 132.364,202.684 132.366,203.535 							"/>
						</g>
						<g>
							<polygon style="fill:#49626D;" points="128.959,189.459 129.764,188.994 130.194,189.598 128.716,190.452 							"/>
						</g>
						<g>
							<polygon style="fill:#3A4D57;" points="147.68,164.312 147.699,171.048 140.743,175.064 140.724,168.328 							"/>
						</g>
						<g>
							<polygon style="fill:#49626D;" points="147.677,163.461 148.044,163.25 148.046,164.1 147.68,164.312 140.724,168.328 
								140.721,167.477 							"/>
						</g>
						<g>
							<polygon style="fill:#49626D;" points="133.042,180.362 133.04,179.512 140.002,175.492 140.005,176.342 							"/>
						</g>
						<g>
							<polygon style="fill:#49626D;" points="117.69,203.557 119.91,202.275 120.101,203.025 117.692,204.415 							"/>
						</g>
						<g>
							<polygon style="fill:#49626D;" points="139.96,160.747 140.701,160.32 140.702,160.749 140.721,167.477 140.724,168.328 
								140.743,175.064 140.745,175.915 140.763,182.214 140.023,182.642 140.005,176.342 140.002,175.492 139.983,168.755 
								139.981,167.905 139.962,161.176 							"/>
						</g>
						<g>
							<polygon style="fill:#49626D;" points="119.949,195.513 119.761,194.77 124.624,191.962 124.627,192.812 							"/>
						</g>
						<g>
							<polygon style="fill:#49626D;" points="117.668,195.978 118.229,195.654 118.418,196.397 117.671,196.828 							"/>
						</g>
						<g>
							<polygon style="fill:#49626D;" points="109.989,208.863 109.987,208.004 116.95,203.984 116.952,204.843 							"/>
						</g>
						<g>
							<polygon style="fill:#3A4D57;" points="117.661,193.416 118.229,195.654 117.668,195.978 							"/>
						</g>
						<g>
							<polygon style="fill:#49626D;" points="132.258,165.195 132.998,164.767 132.999,165.196 133.018,171.925 133.021,172.775 
								133.04,179.512 133.042,180.362 133.06,186.662 132.32,187.089 132.302,180.79 132.299,179.939 132.28,173.203 
								132.278,172.352 132.259,165.624 							"/>
						</g>
						<g>
							<polygon style="fill:#49626D;" points="117.628,181.662 117.625,180.812 124.581,176.796 124.584,177.646 							"/>
						</g>
						<g>
							<polygon style="fill:#3A4D57;" points="115.172,183.081 112.88,191.151 109.944,192.846 109.925,186.11 							"/>
						</g>
						<g>
							<polygon style="fill:#49626D;" points="101.859,189.914 102.226,189.702 109.182,185.686 109.185,186.537 102.229,190.553 
								101.862,190.765 							"/>
						</g>
					</g>
					<g>
						<polygon style="fill:#3A4D57;" points="124.67,207.978 124.689,214.714 117.733,218.731 117.714,211.994 121.782,209.646 
							122.917,214.118 124.38,208.145 						"/>
					</g>
					<g>
						<polygon style="fill:#3A4D57;" points="124.603,184.383 118.079,188.149 117.641,186.426 117.628,181.662 124.584,177.646 
													"/>
					</g>
					<g>
						<polygon style="fill:#3A4D57;" points="147.723,179.478 147.742,186.207 140.786,190.223 140.768,183.923 147.043,180.3 
							147.042,179.871 						"/>
					</g>
				</g>
				<g>
					<polygon style="fill:#3A4D57;" points="137.903,142.218 137.903,145.636 133.264,148.315 116.866,157.784 116.866,154.359 
											"/>
					<polygon style="fill:#DCE8EF;" points="112.525,156.865 116.866,154.359 116.866,157.784 115.491,158.577 115.491,165.421 
						112.525,167.133 					"/>
					<polygon style="fill:#DCE8EF;" points="142.16,139.76 142.16,150.022 139.195,151.734 139.195,144.891 137.903,145.636 
						137.903,142.215 					"/>
					<polygon style="fill:#546069;" points="137.903,142.215 137.903,142.218 116.866,154.359 111.046,150.851 131.788,138.897 
						131.79,138.897 					"/>
					<polygon style="fill:#C3D3DD;" points="111.046,150.851 116.866,154.359 112.525,156.865 106.601,153.413 					"/>
					<polygon style="fill:#C3D3DD;" points="142.16,139.76 137.903,142.215 131.79,138.897 136.229,136.341 139.195,138.053 					
						"/>
					<polygon style="fill:#A5B7C6;" points="139.195,144.891 139.195,151.734 133.264,148.315 137.903,145.636 					"/>
					<polygon style="fill:#A5B7C6;" points="112.525,156.864 112.525,167.132 106.602,163.674 106.602,156.864 106.602,153.412 
											"/>
				</g>
			</g>
			<g>
				<g id="XMLID_558_">
					<g>
						<path style="fill:#FBD15B;" d="M166.643,220.863l0.004,19.051c0,5.19-9.307,9.892-17.132,9.892
							c-7.829,0-17.132-4.702-17.132-9.892v-19.051c0-0.925,0.344-1.962,0.893-2.859c2.515,3.957,9.864,7.072,16.235,7.072
							c6.368,0,13.72-3.116,16.235-7.072C166.298,218.901,166.643,219.938,166.643,220.863z M164.504,239.317
							c0-3.392,0-10.673,0-14.842c-0.244,0.244-0.509,0.489-0.793,0.721c-1.041,0.877-2.315,1.674-3.72,2.355
							c-3.14,1.522-6.956,2.471-10.476,2.471c-3.524,0-7.341-0.949-10.48-2.471c-1.79-0.869-3.356-1.918-4.517-3.084
							c0,4.117,0,11.281,0,14.846c3.208,3.2,9.467,5.546,14.998,5.546C155.037,244.859,161.3,242.517,164.504,239.317z"/>
						<path style="fill:#EABC49;" d="M164.504,224.475c0,4.169,0,11.45,0,14.842c-3.204,3.2-9.467,5.542-14.99,5.542
							c-5.531,0-11.79-2.347-14.998-5.546c0-3.564,0-10.729,0-14.846c1.161,1.165,2.727,2.215,4.517,3.084
							c3.14,1.522,6.956,2.471,10.48,2.471c3.52,0,7.337-0.949,10.476-2.471c1.406-0.681,2.679-1.478,3.72-2.355
							C163.996,224.964,164.26,224.719,164.504,224.475z"/>
						<path style="fill:#EC827D;" d="M166.643,210.242c0,1.962-1.329,3.853-3.408,5.447h-0.004c-3.42,2.623-8.854,4.441-13.72,4.441
							c-4.866,0-10.304-1.818-13.72-4.441h-0.004c-2.079-1.594-3.408-3.484-3.408-5.447c0-5.19,9.303-9.892,17.132-9.892
							C157.336,200.351,166.643,205.052,166.643,210.242z"/>
						<path style="fill:#D66565;" d="M132.378,215.184v-4.942c0,1.962,1.329,3.853,3.408,5.447h0.004
							c3.416,2.623,8.854,4.441,13.72,4.441c4.866,0,10.3-1.818,13.72-4.441h0.004c2.079-1.594,3.408-3.484,3.408-5.447v4.942
							c0,0.965-0.324,1.914-0.897,2.819c-2.515,3.957-9.868,7.072-16.235,7.072c-6.372,0-13.72-3.116-16.235-7.072
							C132.703,217.098,132.378,216.149,132.378,215.184z"/>
					</g>
				</g>
			</g>
			<g>
				<g>
					<g id="XMLID_557_">
						<g>
							<g>
								<path style="fill:#F08879;" d="M194.292,138.745v59.062c0,1.695-1.202,3.776-2.667,4.621l-13.495,7.79
									c-0.735,0.427-1.408,0.462-1.888,0.18l-0.026-0.018c-0.466-0.29-0.753-0.876-0.753-1.703l0.004-59.066
									c0-1.694,1.202-3.772,2.672-4.621l13.486-7.786c0.735-0.427,1.404-0.462,1.884-0.18
									C193.993,137.305,194.292,137.9,194.292,138.745z"/>
							</g>
							<g>
								<path style="fill:#D66565;" d="M188.869,134.348l4.639,2.672v0.004c-0.48-0.282-1.149-0.247-1.884,0.18l-13.486,7.786
									c-1.47,0.849-2.672,2.927-2.672,4.621l-0.004,59.066c0,0.827,0.286,1.413,0.753,1.703l-4.582-2.645l-0.097-0.053
									c-0.484-0.282-0.784-0.876-0.784-1.721l0.009-59.066c0-1.695,1.202-3.776,2.667-4.621l13.486-7.79
									c0.766-0.44,1.452-0.462,1.941-0.145L188.869,134.348z"/>
							</g>
						</g>
					</g>
				</g>
				<g>
					<path style="fill:#DCE8EF;" d="M176.945,209.7c-0.524,0-0.602-0.64-0.602-1.022l0.006-59.065c0-1.37,1.041-3.174,2.228-3.859
						l13.487-7.789c0.349-0.202,0.598-0.244,0.745-0.244c0.524,0,0.602,0.64,0.602,1.022v59.064c0,1.371-1.041,3.174-2.228,3.859
						l-13.493,7.79C177.341,209.658,177.093,209.7,176.945,209.7z"/>
				</g>
				<g>
					<g>
						<path style="fill:#F9F8F7;" d="M180.17,201.176c-0.1,0-0.197-0.052-0.25-0.144c-0.08-0.138-0.032-0.314,0.106-0.394
							l9.415-5.435c0.137-0.081,0.314-0.033,0.394,0.105c0.08,0.138,0.032,0.314-0.106,0.394l-9.415,5.435
							C180.269,201.164,180.219,201.176,180.17,201.176z"/>
					</g>
					<g>
						<path style="fill:#F9F8F7;" d="M180.17,195.741c-0.1,0-0.197-0.052-0.25-0.144c-0.08-0.138-0.032-0.314,0.106-0.394
							l9.415-5.436c0.137-0.081,0.314-0.033,0.394,0.105c0.08,0.138,0.032,0.314-0.106,0.394l-9.415,5.436
							C180.269,195.729,180.219,195.741,180.17,195.741z"/>
					</g>
					<g>
						<path style="fill:#F9F8F7;" d="M180.17,190.306c-0.1,0-0.197-0.052-0.25-0.144c-0.08-0.138-0.032-0.314,0.106-0.394
							l9.415-5.436c0.137-0.081,0.314-0.032,0.394,0.105c0.08,0.138,0.032,0.314-0.106,0.394l-9.415,5.436
							C180.269,190.293,180.219,190.306,180.17,190.306z"/>
					</g>
					<g>
						<path style="fill:#F9F8F7;" d="M180.17,184.87c-0.1,0-0.197-0.052-0.25-0.144c-0.08-0.138-0.032-0.314,0.106-0.394
							l9.415-5.436c0.137-0.081,0.314-0.033,0.394,0.105c0.08,0.138,0.032,0.314-0.106,0.394l-9.415,5.436
							C180.269,184.858,180.219,184.87,180.17,184.87z"/>
					</g>
					<g>
						<path style="fill:#F9F8F7;" d="M180.17,179.434c-0.1,0-0.197-0.052-0.25-0.144c-0.08-0.138-0.032-0.314,0.106-0.394
							l9.415-5.435c0.137-0.081,0.314-0.033,0.394,0.105c0.08,0.138,0.032,0.314-0.106,0.394l-9.415,5.435
							C180.269,179.422,180.219,179.434,180.17,179.434z"/>
					</g>
					<g>
						<path style="fill:#F9F8F7;" d="M180.17,173.999c-0.1,0-0.197-0.052-0.25-0.144c-0.08-0.138-0.032-0.314,0.106-0.394
							l9.415-5.436c0.137-0.081,0.314-0.033,0.394,0.105c0.08,0.138,0.032,0.314-0.106,0.394l-9.415,5.436
							C180.269,173.987,180.219,173.999,180.17,173.999z"/>
					</g>
					<g>
						<path style="fill:#F9F8F7;" d="M180.17,168.563c-0.1,0-0.197-0.052-0.25-0.144c-0.08-0.138-0.032-0.314,0.106-0.394
							l9.415-5.436c0.137-0.081,0.314-0.033,0.394,0.105c0.08,0.138,0.032,0.314-0.106,0.394l-9.415,5.436
							C180.269,168.551,180.219,168.563,180.17,168.563z"/>
					</g>
					<g>
						<path style="fill:#F9F8F7;" d="M180.17,163.128c-0.1,0-0.197-0.052-0.25-0.144c-0.08-0.138-0.032-0.314,0.106-0.394
							l9.415-5.435c0.137-0.081,0.314-0.033,0.394,0.105c0.08,0.138,0.032,0.314-0.106,0.394l-9.415,5.435
							C180.269,163.115,180.219,163.128,180.17,163.128z"/>
					</g>
					<g>
						<path style="fill:#F9F8F7;" d="M180.17,157.693c-0.1,0-0.197-0.052-0.25-0.144c-0.08-0.138-0.032-0.314,0.106-0.394
							l9.415-5.436c0.137-0.079,0.314-0.033,0.394,0.106c0.08,0.138,0.032,0.314-0.106,0.394l-9.415,5.435
							C180.269,157.68,180.219,157.693,180.17,157.693z"/>
					</g>
					<g>
						<path style="fill:#F9F8F7;" d="M184.877,178.739c-0.159,0-0.288-0.129-0.288-0.288v-31.918c0-0.16,0.129-0.289,0.288-0.289
							c0.159,0,0.288,0.129,0.288,0.289v31.918C185.165,178.61,185.036,178.739,184.877,178.739z"/>
					</g>
					<g>
						<path style="fill:#EC827D;" d="M184.877,201.753c-0.478,0-0.865-0.388-0.865-0.865v-22.437c0-0.478,0.387-0.865,0.865-0.865
							c0.478,0,0.865,0.388,0.865,0.865v22.437C185.742,201.366,185.355,201.753,184.877,201.753z"/>
					</g>
					<circle style="fill:#EC827D;" cx="184.877" cy="201.176" r="1.416"/>
				</g>
			</g>
			<g>
				<g>
					<g id="XMLID_556_">
						<g>
							<g>
								<path style="fill:#DCE8EF;" d="M225.47,269.142c0,6.536,0,34.617,0,34.617l-13.347-7.706v-30.831
									c0-2.53-2.126-4.947-5.217-6.799C209.06,259.668,218.796,265.289,225.47,269.142z"/>
							</g>
							<g>
								<path style="fill:#F0F5F7;" d="M212.122,265.223v30.831h-0.004c0,5.392-9.665,10.277-17.799,10.277
									c-8.134,0-17.803-4.885-17.803-10.277l0.004-30.831c0,5.392,9.669,10.277,17.804,10.277
									C202.457,275.5,212.122,270.615,212.122,265.223z"/>
							</g>
							<g>
								<path style="fill:#C3D3DD;" d="M206.905,258.424c3.091,1.852,5.217,4.269,5.217,6.799c0,5.392-9.665,10.277-17.799,10.277
									c-8.134,0-17.804-4.885-17.804-10.277c0-5.392,9.669-10.277,17.799-10.277c4.148,0,8.692,1.269,12.153,3.229
									c0,0,0.042,0.025,0.121,0.066c0.025,0.017,0.05,0.033,0.083,0.05C206.738,258.329,206.813,258.374,206.905,258.424z"/>
							</g>
						</g>
					</g>
				</g>
				<g>
					<g>
						<path style="fill:#F0F5F7;" d="M194.319,273.203c-6.132,0-13.622-3.682-13.622-7.98c0-4.298,7.49-7.98,13.622-7.98
							c6.132,0,13.622,3.683,13.622,7.98C207.942,269.521,200.451,273.203,194.319,273.203z M194.319,257.788
							c-5.764,0-13.077,3.5-13.077,7.435c0,3.934,7.313,7.435,13.077,7.435c5.764,0,13.077-3.5,13.077-7.435
							C207.396,261.289,200.084,257.788,194.319,257.788z"/>
					</g>
					<g>
						<path style="fill:#F0F5F7;" d="M194.319,270.634c-4.129,0-9.172-2.497-9.172-5.411c0-2.914,5.044-5.411,9.172-5.411
							c4.129,0,9.172,2.496,9.172,5.411C203.492,268.137,198.448,270.634,194.319,270.634z M194.319,260.358
							c-3.803,0-8.627,2.29-8.627,4.865s4.824,4.866,8.627,4.866c3.803,0,8.627-2.291,8.627-4.866S198.122,260.358,194.319,260.358z
							"/>
					</g>
					<g>
						<path style="fill:#F0F5F7;" d="M194.319,268.065c-2.139,0-4.723-1.268-4.723-2.842c0-1.574,2.584-2.842,4.723-2.842
							c2.139,0,4.723,1.267,4.723,2.842C199.042,266.797,196.458,268.065,194.319,268.065z M194.319,262.927
							c-1.991,0-4.177,1.202-4.177,2.296c0,1.095,2.186,2.297,4.177,2.297c1.991,0,4.177-1.202,4.177-2.297
							C198.497,264.129,196.31,262.927,194.319,262.927z"/>
					</g>
				</g>
			</g>
			<g>
				<g id="XMLID_552_">
					<g>
						<path style="fill:#DCE8EF;" d="M121.853,238.882h-0.006c-0.268,3.527-6.597,6.669-11.947,6.669
							c-5.344,0-11.678-3.142-11.947-6.669c-3.421,2.896-5.987,7.944-5.987,12.165v20.886c0,5.434,9.744,10.359,17.934,10.359
							c8.195,0,17.939-4.925,17.939-10.359v-20.886C127.84,246.826,125.274,241.784,121.853,238.882z"/>
						<path style="fill:#EC827D;" d="M109.906,224.839c5.462,0,11.952,3.282,11.952,6.904c0,3.622-6.49,6.904-11.958,6.904
							c-5.462,0-11.958-3.281-11.958-6.904C97.943,228.121,104.439,224.839,109.906,224.839z"/>
						<path style="fill:#D66565;" d="M121.864,238.648c0,0.078-0.006,0.156-0.017,0.235c-0.268,3.527-6.597,6.669-11.947,6.669
							c-5.344,0-11.678-3.142-11.947-6.669c-0.006-0.078-0.011-0.156-0.011-0.235v-6.904c0,3.622,6.496,6.904,11.958,6.904
							c5.467,0,11.958-3.281,11.958-6.904v6.904H121.864z"/>
					</g>
				</g>
				<path style="fill:#F9F8F7;" d="M121.288,259.298v15.898c-3.358,1.716-7.54,2.797-11.385,2.797c-4.581,0-9.648-1.54-13.229-3.845
					v-15.905c3.581,2.311,8.648,3.851,13.229,3.851C113.747,262.095,117.93,261.014,121.288,259.298z"/>
			</g>
			<g>
				<g>
					<g id="XMLID_551_">
						<g>
							<path style="fill:#6CB9D3;" d="M232.554,147.288v0.932c0,0.978-1.753,1.864-3.227,1.864v-0.932
								C230.8,149.152,232.554,148.266,232.554,147.288z"/>
							<path style="fill:#89C9E5;" d="M229.327,145.425c1.474,0,3.227,0.886,3.227,1.863c0,0.978-1.753,1.863-3.227,1.863
								L229.327,145.425z"/>
							<path style="fill:#BEE1F4;" d="M229.327,145.425l-0.001,3.727c-1.474-0.001-3.227-0.886-3.227-1.863
								C226.099,146.311,227.853,145.424,229.327,145.425z"/>
							<path style="fill:#89C9E5;" d="M226.099,148.22v-0.932c0,0.977,1.753,1.863,3.227,1.863v0.932
								C227.852,150.083,226.099,149.197,226.099,148.22z"/>
						</g>
					</g>
				</g>
				<g>
					<g id="XMLID_550_">
						<g>
							<path style="fill:#FAAD57;" d="M227.811,153.778v0.932c0,0.978-1.753,1.863-3.227,1.863v-0.932
								C226.058,155.641,227.811,154.755,227.811,153.778z"/>
							<path style="fill:#FBD15B;" d="M224.584,151.914c1.474,0,3.227,0.886,3.227,1.863c0,0.978-1.753,1.863-3.227,1.863
								L224.584,151.914z"/>
							<path style="fill:#EC827D;" d="M224.584,151.914l-0.001,3.727c-1.474-0.001-3.227-0.887-3.227-1.863
								C221.357,152.8,223.11,151.913,224.584,151.914z"/>
							<path style="fill:#F15D56;" d="M221.357,154.709v-0.932c0,0.977,1.753,1.863,3.227,1.863v0.932
								C223.109,156.572,221.357,155.686,221.357,154.709z"/>
						</g>
					</g>
				</g>
				<g>
					<g id="XMLID_549_">
						<g>
							<path style="fill:#C3D3DD;" d="M222.97,146.822v0.932c0,0.978-1.753,1.863-3.227,1.863v-0.932
								C221.217,148.686,222.97,147.8,222.97,146.822z"/>
							<path style="fill:#F9F8F7;" d="M219.744,144.959c1.474,0,3.227,0.886,3.227,1.864c0,0.978-1.753,1.863-3.227,1.863
								L219.744,144.959z"/>
							<path style="fill:#C3D3DD;" d="M219.744,144.959l-0.001,3.727c-1.474-0.001-3.227-0.887-3.227-1.863
								C216.516,145.845,218.27,144.958,219.744,144.959z"/>
							<path style="fill:#A5B7C6;" d="M216.516,147.754v-0.932c0,0.977,1.753,1.863,3.227,1.863v0.932
								C218.269,149.617,216.516,148.731,216.516,147.754z"/>
						</g>
					</g>
				</g>
				<g>
					<g id="XMLID_548_">
						<g>
							<path style="fill:#C3D3DD;" d="M228.692,142.164v0.932c0,0.978-1.753,1.863-3.227,1.863v-0.932
								C226.939,144.027,228.692,143.141,228.692,142.164z"/>
							<path style="fill:#F9F8F7;" d="M225.466,140.3c1.474,0,3.227,0.886,3.227,1.863c0,0.978-1.753,1.863-3.227,1.863
								L225.466,140.3z"/>
							<path style="fill:#C3D3DD;" d="M225.466,140.3l-0.001,3.727c-1.474-0.001-3.227-0.886-3.227-1.863
								C222.238,141.186,223.992,140.3,225.466,140.3z"/>
							<path style="fill:#A5B7C6;" d="M222.238,143.096v-0.932c0,0.977,1.753,1.863,3.227,1.863v0.932
								C223.991,144.958,222.238,144.072,222.238,143.096z"/>
						</g>
					</g>
				</g>
				<g>
					<path style="fill:#EC827D;" d="M208.411,148.731l2.192-1.353c0.589-0.364,1.57-0.393,2.179-0.064l0.064,0.034
						c0.61,0.329,1.125,1.163,1.146,1.856l0.002,0.073c0.02,0.692-0.445,1.556-1.034,1.92l-2.235,1.38l-0.001-0.001
						c0.578-0.357,0.462-1.718-0.076-2.59C210.124,149.135,209.002,148.433,208.411,148.731z"/>
					<path style="fill:#D66565;" d="M206.681,149.799l1.73-1.068c0.082-0.042,0.177-0.063,0.277-0.067
						c0.618-0.028,1.508,0.592,1.958,1.323c0.451,0.73,0.605,1.803,0.304,2.342c-0.058,0.105-0.134,0.19-0.228,0.248l0.001,0.001
						l-1.684,1.04c-0.589,0.364-1.57,0.392-2.18,0.063l-0.064-0.034c-0.61-0.329-1.125-1.163-1.145-1.856l-0.002-0.073
						C205.626,151.025,206.092,150.162,206.681,149.799z"/>
				</g>
				<g>
					<path style="fill:#D66565;" d="M212.586,154.081l2.192-1.353c0.589-0.364,1.57-0.393,2.179-0.064l0.064,0.034
						c0.61,0.329,1.125,1.163,1.145,1.856l0.002,0.073c0.021,0.692-0.445,1.556-1.034,1.92l-2.235,1.38l-0.001-0.001
						c0.578-0.357,0.462-1.718-0.076-2.59C214.298,154.484,213.176,153.783,212.586,154.081z"/>
					<path style="fill:#FBD15B;" d="M210.856,155.148l1.73-1.068c0.082-0.042,0.177-0.063,0.277-0.067
						c0.618-0.028,1.508,0.592,1.958,1.323c0.451,0.73,0.605,1.803,0.304,2.342c-0.058,0.105-0.134,0.19-0.228,0.248l0.001,0.001
						l-1.684,1.04c-0.589,0.364-1.57,0.392-2.18,0.063l-0.064-0.034c-0.61-0.329-1.125-1.163-1.145-1.856l-0.002-0.073
						C209.801,156.375,210.267,155.512,210.856,155.148z"/>
				</g>
				<g>
					<path style="fill:#D66565;" d="M213.423,160.906l2.192-1.353c0.589-0.364,1.569-0.393,2.179-0.064l0.064,0.034
						c0.61,0.329,1.125,1.163,1.146,1.856l0.002,0.073c0.021,0.692-0.445,1.557-1.034,1.92l-2.235,1.38l-0.001-0.001
						c0.578-0.357,0.462-1.718-0.076-2.59C215.135,161.309,214.013,160.608,213.423,160.906z"/>
					<path style="fill:#FBD15B;" d="M211.693,161.973l1.73-1.068c0.082-0.042,0.177-0.063,0.276-0.067
						c0.618-0.027,1.508,0.592,1.958,1.323c0.451,0.73,0.605,1.803,0.304,2.342c-0.058,0.105-0.134,0.19-0.228,0.248l0.001,0.001
						l-1.684,1.04c-0.589,0.364-1.57,0.392-2.18,0.063l-0.064-0.034c-0.61-0.329-1.125-1.163-1.145-1.856l-0.002-0.073
						C210.638,163.2,211.104,162.337,211.693,161.973z"/>
				</g>
				<g>
					<path style="fill:#BEE1F4;" d="M201.83,156.499l2.192-1.353c0.589-0.364,1.57-0.393,2.179-0.064l0.064,0.034
						c0.61,0.329,1.125,1.163,1.145,1.856l0.002,0.073c0.021,0.692-0.445,1.556-1.034,1.92l-2.235,1.38l-0.001-0.001
						c0.578-0.357,0.462-1.718-0.076-2.59C203.543,156.903,202.421,156.202,201.83,156.499z"/>
					<path style="fill:#0F7292;" d="M200.101,157.567l1.73-1.068c0.082-0.042,0.177-0.063,0.277-0.067
						c0.618-0.028,1.508,0.592,1.958,1.323c0.451,0.73,0.605,1.803,0.304,2.342c-0.058,0.105-0.134,0.19-0.228,0.248l0.001,0.001
						l-1.684,1.04c-0.589,0.364-1.57,0.392-2.18,0.063l-0.064-0.034c-0.61-0.329-1.125-1.163-1.145-1.856l-0.002-0.073
						C199.046,158.794,199.511,157.931,200.101,157.567z"/>
				</g>
			</g>
		</g>
	</g>
</g>
</svg>
